<svg width="97" height="77" viewBox="0 0 97 77" fill="none" xmlns="http://www.w3.org/2000/svg"><path d="M93.75 3.125V56.25a3.125 3.125 0 01-3.125 3.125H6.25a3.125 3.125 0 01-3.125-3.125V3.125A3.125 3.125 0 016.25 0h84.375a3.125 3.125 0 013.125 3.125z" fill="#636475"/><path d="M9.375 6.25H87.5v46.875H9.375V6.25z" fill="#fff"/><path d="M96.517 64.628a1.566 1.566 0 00-1.204-.566h-39.74c-.56 0-1.078.3-1.357.788l-1.333 2.338H43.99l-1.335-2.338a1.558 1.558 0 00-1.356-.787H1.563a1.567 1.567 0 00-1.536 1.854l1.784 9.375c.142.738.786 1.27 1.536 1.27h90.181a1.56 1.56 0 001.534-1.27l1.785-9.375a1.568 1.568 0 00-.33-1.289z" fill="#636475"/><path d="M64.683 19.404a1.794 1.794 0 00-.639-.572 1.76 1.76 0 00-.827-.207H35.546l-.977-2.487a1.812 1.812 0 00-.657-.827 1.766 1.766 0 00-.999-.311h-7.13c-.473 0-.927.191-1.26.53-.335.34-.523.802-.523 1.283 0 .48.188.941.522 1.281.334.34.788.531 1.26.531h5.924l6.683 16.987c.133.336.361.624.656.827.295.203.642.31.998.311H57.87c.743 0 1.408-.47 1.67-1.176l5.348-14.5a1.848 1.848 0 00-.205-1.67zm-5.375 6.471h-3.323l1.337-3.625h3.323l-1.337 3.625zm-13.573 0l-1.337-3.625h9.117l-1.337 3.625h-6.443zm5.106 3.625l-1.337 3.625h-1.095L47.072 29.5h3.769zm-10.25-7.25l1.337 3.625h-3.53l-1.426-3.625h3.619zm-.767 7.25h3.44l1.338 3.625H41.25L39.824 29.5zm16.81 3.625h-3.323l1.337-3.625h3.323l-1.337 3.625zm-14.808 7.25h3.565V44h-3.565v-3.625zm10.696 0h3.565V44h-3.565v-3.625z" fill="#3CABE3"/><path d="M95.313 64.063H84.472c-6.597 5.064-14.116 9.295-22.325 12.5h31.381a1.56 1.56 0 001.535-1.27l1.784-9.376a1.563 1.563 0 00-1.534-1.855z" fill="#3E3E3E"/></svg>