<svg width="100" height="100" viewBox="0 0 100 100" fill="none" xmlns="http://www.w3.org/2000/svg"><path d="M92.36 22.482H7.748v71.342h84.614V22.482z" fill="#3CABE3"/><path d="M10 35.345a4.984 4.984 0 01-2.253 4.177v-4.177h2.254z" fill="#3CABE3"/><path d="M20 35.344a5 5 0 11-10 0h10zm10 0a5 5 0 11-10 0h10z" fill="#3CABE3"/><path d="M39.999 35.344a5 5 0 11-10 0h10zm10 0a5 5 0 11-10 0h10z" fill="#3CABE3"/><path d="M60.001 35.344a5.002 5.002 0 01-10.002 0H60zm10 0a5 5 0 11-10 0h10z" fill="#3CABE3"/><path d="M80 35.344a5 5 0 11-9.999 0h10z" fill="#3CABE3"/><path d="M90 35.344a5 5 0 11-10 0h10z" fill="#3CABE3"/><path d="M92.36 35.345v4.246A4.99 4.99 0 0190 35.345h2.36zm0-12.863H7.748v12.862h84.614V22.482z" fill="#3CABE3"/><path d="M39.194 42.012H11.63v51.813h27.564V42.012z" fill="#fff"/><path d="M38.008 43.198H12.816v49.44h25.192v-49.44z" fill="#3CABE3"/><path d="M36.11 44.147H14.714v29.886h21.398V44.147z" fill="#3CABE3"/><path d="M34.688 45.57H16.137v27.04h18.55V45.57z" fill="#2D4151"/><path d="M36.11 75.456H14.714V90.74h21.398V75.456z" fill="#3CABE3"/><path d="M34.925 76.76H15.899v12.677h19.026V76.76z" fill="#3CABE3"/><path d="M32.79 85.452H18.034v1.903H32.79v-1.903zm0-6.372H18.034v1.902H32.79V79.08zm0 3.186H18.034v1.903H32.79v-1.903z" fill="#3CABE3"/><path d="M87.929 42.012H41.273v41.725h46.656V42.012z" fill="#fff"/><path d="M86.743 43.198H42.459V82.55h44.284V43.198z" fill="#3CABE3"/><path d="M85.795 44.147H43.407v37.377h42.388V44.147z" fill="#2D4151"/><path d="M10 33.678a5 5 0 11-10 0" fill="#84D85C"/><path d="M20 33.678a5 5 0 11-10 0" fill="#D1D1D1"/><path d="M30 33.678a5 5 0 11-10 0" fill="#84D85C"/><path d="M39.999 33.678a5 5 0 11-10 0" fill="#D1D1D1"/><path d="M49.999 33.678a5 5 0 11-10 0" fill="#84D85C"/><path d="M60.001 33.678a5.002 5.002 0 01-10.002 0" fill="#D1D1D1"/><path d="M70.001 33.678a5 5 0 11-10 0" fill="#84D85C"/><path d="M80 33.678a5 5 0 11-9.999 0" fill="#D1D1D1"/><path d="M90 33.678a5 5 0 11-10 0" fill="#84D85C"/><path d="M100 33.678a5 5 0 11-10 0" fill="#D1D1D1"/><path d="M16.198 18.332h-8.45L0 33.678h10l6.198-15.345z" fill="#84D85C"/><path d="M24.648 18.332h-8.45L10 33.678h10l4.648-15.345z" fill="#E6E6E6"/><path d="M33.099 18.332h-8.45l-4.65 15.346h10l3.1-15.345z" fill="#84D85C"/><path d="M41.549 18.332h-8.45l-3.1 15.346h10l1.55-15.345z" fill="#E6E6E6"/><path d="M49.999 18.332h-8.45l-1.55 15.346h10V18.333z" fill="#84D85C"/><path d="M58.449 18.332h-8.45v15.346h10l-1.55-15.345z" fill="#E6E6E6"/><path d="M66.899 18.332h-8.45l1.55 15.346h10l-3.1-15.345z" fill="#84D85C"/><path d="M75.35 18.332h-8.451l3.1 15.346h9.999l-4.649-15.345zm16.902 0h-8.45L90 33.678h10l-7.748-15.345z" fill="#E6E6E6"/><path d="M83.802 18.332h-8.45L80 33.678h10l-6.2-15.345z" fill="#84D85C"/><path d="M65.431 71.047h-1.66v10.477h1.66V71.047z" fill="#D8722E"/><path d="M63.007 69.861l1.595-2.762 1.594 2.762h-3.189zm-2.497-1.393a1.63 1.63 0 01-3.261 0m14.706 0a1.63 1.63 0 11-3.262 0" fill="#E6E6E6"/><path d="M65.431 71.403h-1.66v1.66h1.66v-1.66z" fill="#C6622A"/><path d="M72.785 71.521H56.419a.83.83 0 010-1.66h16.366a.83.83 0 110 1.66zM52.572 77.57h-1.66v3.953h1.66V77.57zm4.904 0h-1.66v3.953h1.66V77.57z" fill="#D8722E"/><path d="M57.476 77.451h-1.66v1.66h1.66v-1.66zm-4.904 0h-1.66v1.66h1.66v-1.66z" fill="#C6622A"/><path d="M57.43 76.265h-5.45v-7.939c0-.449-.337-.852-.786-.875a.83.83 0 00-.875.829v9.079c0 .313.253.566.566.566h6.591a.83.83 0 00.83-.874c-.024-.45-.427-.786-.877-.786zm20.86 1.305h-1.66v3.953h1.66V77.57zm-4.904 0h-1.66v3.953h1.66V77.57z" fill="#D8722E"/><path d="M73.386 77.451h-1.66v1.66h1.66v-1.66zm4.904 0h-1.66v1.66h1.66v-1.66z" fill="#C6622A"/><path d="M78.008 67.45c-.449.024-.785.427-.785.876v7.94h-5.45c-.45 0-.853.336-.877.785a.83.83 0 00.83.874h6.591a.566.566 0 00.566-.566v-9.08a.83.83 0 00-.875-.828z" fill="#D8722E"/><path d="M45.63 67.567c3.246 1.469 5.618 6.068 5.618 11.516 0 .837-.057 1.653-.163 2.44h-7.678V44.148h15.322c.188 1.146.297 2.327.318 3.537.002.15.005.3.005.453 0 9.895-5.835 18.076-13.423 19.43zm40.165-23.42v37.377h-7.678a18.185 18.185 0 01-.163-2.441c0-5.448 2.372-10.047 5.619-11.516-7.588-1.354-13.423-9.535-13.423-19.43a24.61 24.61 0 01.322-3.99h15.323z" fill="#84D85C"/><path d="M47.097 67.215h-3.69v1.275h3.69v-1.275zm38.698 0h-3.69v1.275h3.69v-1.275z" fill="#74C64D"/><path d="M58.73 44.147c.187 1.146.296 2.327.317 3.537h-15.64v-3.537h15.322z" fill="#84D85C"/><path d="M65.194 44.147h-1.186v12.076h1.186V44.147z" fill="#D8722E"/><path d="M85.871 44.147v3.537H70.155c.021-1.21.13-2.391.318-3.537H85.87zM70.16 59.477a5.56 5.56 0 00-11.118 0" fill="#84D85C"/><path opacity=".2" d="M45.164 79.938h39.751v-22.74s-6.384 19.954-39.751 22.74z" fill="#FCFAFA"/><path d="M85.2 6.175H17.52v17.79H85.2V6.175z" fill="#3CABE3"/><path d="M83.464 7.91H19.255v14.32h64.21V7.91z" fill="#fff"/><path d="M81.73 9.645H20.99v10.85h60.74V9.644z" fill="#3CABE3"/><path d="M81.6 9.6H20.8v11.2h60.8V9.6z" fill="#3CABE3"/><path d="M87.929 84.923H41.273v7.716h46.656v-7.716z" fill="#fff"/><path d="M86.743 86.109H42.459v5.344h44.284v-5.344z" fill="#3CABE3"/><path d="M47.137 14.569c0-.017.008-.042.008-.042.058-.216.108-.407.108-.623 0-.283-.083-.515-.332-.515-.566 0-1.28 1.222-1.28 2.352 0 .79.365 1.073.74 1.073.373 0 .889-.375 1.097-.55 0 0 .05-.049.1-.049.057 0 .09.017.124.058.075.092.25.482.283.565.025.059.041.1.041.158 0 .05-.016.092-.05.133-.25.333-.898.84-1.496.84-.532 0-1.413-.44-1.738-.931a2.242 2.242 0 01-.34-1.222c0-1.521.939-3.442 2.244-3.442.382 0 1.837.49 1.837 1.222 0 .316-.15.69-.24.906a.23.23 0 01-.217.142c-.125.017-.648.025-.773.025-.066 0-.116-.042-.116-.1zm3.458 2.993l-.025-.35c0-.04-.017-.066-.033-.066-.017 0-.033.017-.05.042-.291.465-.624.765-.881.765-.59 0-1.247-.724-1.247-1.505 0-1.389.665-2.76 1.812-2.76.407 0 1.239.324 1.837.715a.2.2 0 01.1.174c0 .025-.016.092-.016.092-.333 1.18-.45 2.469-.466 3.134a.144.144 0 01-.142.133c-.216 0-.673-.125-.74-.158a.258.258 0 01-.149-.216zm-.075-1.38c.092-.433.25-1.214.25-1.28a.132.132 0 00-.092-.133.993.993 0 00-.291-.067c-.54 0-.84 1.139-.84 1.712 0 .242.058.408.133.408.175 0 .49-.225.732-.45a.32.32 0 00.108-.19zm4.314-3.06c-.24 0-.49.233-.49.49 0 .067.041.1.124.1.15 0 .316 0 .416.009.108.008.142.1.142.19a7.356 7.356 0 01-.067.724.197.197 0 01-.191.15c-.117 0-.333-.008-.532-.008a.18.18 0 00-.175.133c-.175.906-.382 2.07-.523 2.893a.187.187 0 01-.175.141c-.166 0-.715-.15-.848-.216-.058-.033-.117-.075-.117-.183 0-.15.433-2.61.433-2.652 0-.091-.017-.141-.083-.141h-.117c-.1 0-.157-.058-.157-.142 0-.083 0-.482.016-.665 0-.091.067-.183.191-.183h.183c.1 0 .166-.074.183-.166.166-.84.515-1.596 1.555-1.596.249 0 .557.066.798.183.066.041.1.091.1.158 0 .083-.183.707-.2.756-.017.058-.075.084-.133.084-.05 0-.208-.059-.333-.059zm1.838 3.75c.29 0 .606-.117.84-.25 0 0 .032-.016.066-.016.058 0 .091.024.124.083.059.108.217.432.217.549a.28.28 0 01-.084.207c-.299.266-.69.508-1.155.508-.275 0-1.04-.225-1.355-.624-.225-.283-.341-.64-.341-1.097 0-1.031.715-2.553 1.72-2.553.292 0 1.098.325 1.406.632.166.167.208.416.208.616 0 .648-.582 1.346-1.597 1.346-.158 0-.382-.033-.449-.033-.041 0-.091.033-.091.1 0 .24.183.532.49.532zm-.341-1.405c0 .066.05.1.108.1.474 0 .756-.416.756-.69 0-.159-.05-.3-.2-.3-.257 0-.664.665-.664.89zm-15.051-.993h-6.123v1.02h6.124v-1.02zm26.282 0H61.44v1.02h6.123v-1.02zm-24.753 1.572h-5.196v1.02h5.196v-1.02zm22.297 0h-5.195v1.02h5.195v-1.02z" fill="#fff"/><path opacity=".2" d="M34.158 50.507V72.09H21.81s10.835-3.466 12.348-21.584z" fill="#FCFAFA"/></svg>