<svg width="100" height="100" viewBox="0 0 100 100" fill="none" xmlns="http://www.w3.org/2000/svg"><g clip-path="url(#clip0)"><path d="M30.382 25.654h-3.018v-9.737c0-2.016.785-3.91 2.21-5.335l4.33-4.33 2.133 2.134-4.329 4.33a4.497 4.497 0 00-1.326 3.2v9.738zm42.254 0h-3.018v-9.737c0-1.21-.471-2.346-1.326-3.201l-4.33-4.33 2.135-2.134 4.329 4.33a7.495 7.495 0 012.21 5.335v9.737z" fill="#B3B3B3"/><path d="M41.41.88a3.027 3.027 0 00-4.269 0l-3.238 3.238a3.027 3.027 0 000 4.268 3.027 3.027 0 004.269 0l3.237-3.238a3.027 3.027 0 000-4.268z" fill="#4F4F4F"/><path d="M58.59.88a3.027 3.027 0 014.268 0l3.239 3.238a3.027 3.027 0 010 4.268 3.027 3.027 0 01-4.269 0L58.59 5.149a3.027 3.027 0 010-4.268z" fill="#353535"/><path d="M50 51.308v45.674h20.93l3.478-45.674H50z" fill="#31A0D8"/><path d="M25.659 51.308l3.478 45.674h35.757l3.478-45.674H25.659z" fill="#3CABE3"/><path d="M74.145 48.29l-12.073 3.018 6.037 3.018h6.036l6.036-6.036h-6.036z" fill="#353535"/><path d="M68.109 54.326H25.855L19.82 48.29h54.326l-6.036 6.036zm6.036-30.181L62.072 36.217 74.145 48.29h6.036V25.654a1.51 1.51 0 00-1.509-1.51h-4.527z" fill="#4F4F4F"/><path d="M74.145 48.29H19.819V25.654c0-.833.676-1.51 1.509-1.51h52.817V48.29z" fill="#696969"/><path d="M50 42.254c6.667 0 12.072-5.405 12.072-12.073 0-6.667-5.405-12.072-12.072-12.072-6.667 0-12.072 5.405-12.072 12.072 0 6.668 5.405 12.073 12.072 12.073z" fill="#fff"/><path d="M50 24.145l-4.024 6.036L50 36.217a6.036 6.036 0 100-12.072z" fill="#60B936"/><path d="M43.964 30.181A6.036 6.036 0 0050 36.217V24.145a6.036 6.036 0 00-6.036 6.036z" fill="#60B936"/><path d="M71.16 93.964h-6.036L71.16 100h4.269a1.509 1.509 0 001.427-2.005 6.04 6.04 0 00-5.696-4.031z" fill="#218DC4"/><path d="M65.124 93.964H28.907a6.039 6.039 0 00-5.695 4.03A1.509 1.509 0 0024.638 100h46.523a6.037 6.037 0 00-6.037-6.036z" fill="#31A0D8"/></g><defs><clipPath id="clip0"><path fill="#fff" d="M0 0h100v100H0z"/></clipPath></defs></svg>