<svg width="91" height="91" viewBox="0 0 91 91" fill="none" xmlns="http://www.w3.org/2000/svg"><path d="M65.625 6.25h-62.5A3.125 3.125 0 000 9.375V87.5c0 1.726 1.4 3.125 3.125 3.125h62.5c1.726 0 3.125-1.4 3.125-3.125V9.375c0-1.726-1.4-3.125-3.125-3.125z" fill="#3CABE3"/><path d="M6.25 12.5H62.5v71.875H6.25V12.5z" fill="#E9EEF2"/><path d="M51.563 6.25v9.375H17.187V6.25a3.125 3.125 0 013.125-3.125h6.25A3.125 3.125 0 0129.688 0h9.375a3.125 3.125 0 013.126 3.125h6.25a3.125 3.125 0 013.124 3.125z" fill="#3CABE3"/><path d="M56.25 23.438H12.5a1.563 1.563 0 010-3.125h43.75a1.563 1.563 0 010 3.125zm0 6.25H12.5a1.563 1.563 0 010-3.125h43.75a1.563 1.563 0 010 3.125z" fill="#DADCDE"/><path d="M14.063 35.375a1 1 0 011-1h4.25a1 1 0 011 1v4.25a1 1 0 01-1 1h-4.25a1 1 0 01-1-1v-4.25zm0 12.5a1 1 0 011-1h4.25a1 1 0 011 1v4.25a1 1 0 01-1 1h-4.25a1 1 0 01-1-1v-4.25zm0 12.5a1 1 0 011-1h4.25a1 1 0 011 1v4.25a1 1 0 01-1 1h-4.25a1 1 0 01-1-1v-4.25z" fill="#636475"/><path d="M56.25 35.938H26.562a1.563 1.563 0 010-3.126H56.25a1.563 1.563 0 010 3.126zm0 6.25H26.562a1.563 1.563 0 010-3.126H56.25a1.563 1.563 0 010 3.126zm0 6.25H26.562a1.563 1.563 0 010-3.126H56.25a1.563 1.563 0 010 3.126zm0 6.25H26.562a1.563 1.563 0 010-3.126H56.25a1.563 1.563 0 010 3.126zm0 6.25H26.562a1.563 1.563 0 010-3.126H56.25a1.563 1.563 0 010 3.126zm0 6.25H26.562a1.563 1.563 0 010-3.126H56.25a1.563 1.563 0 010 3.126zm-3.125 9.375H32.812a1.563 1.563 0 010-3.126h20.313a1.563 1.563 0 010 3.126z" fill="#DADCDE"/><path d="M70.304 21.875L50 34.375c0 25 20.28 31.25 20.28 31.25s20.345-6.25 20.345-31.25c0-.033-20.32-12.5-20.32-12.5z" fill="#3CABE3"/><path d="M70.284 58.855a25.402 25.402 0 01-6.263-4.41c-4.438-4.271-6.993-9.869-7.62-16.672l13.908-8.562c4.933 3.028 10.549 6.477 13.914 8.55-.626 6.806-3.19 12.406-7.645 16.68a25.505 25.505 0 01-6.294 4.414z" fill="#E9EEF2"/><path d="M68.75 50a1.558 1.558 0 01-1.105-.458l-3.125-3.125a1.562 1.562 0 112.21-2.21l2.02 2.021 6.708-6.708a1.562 1.562 0 112.21 2.21l-7.813 7.812A1.557 1.557 0 0168.75 50z" fill="#3CABE3"/></svg>