<svg width="100" height="100" viewBox="0 0 100 100" fill="none" xmlns="http://www.w3.org/2000/svg"><g clip-path="url(#clip0)"><path d="M100 50a49.84 49.84 0 01-3.972 19.563c-1.598 3.754-8.997 2.703-11.42 5.92-2.607 3.462-.297 11.143-3.7 13.822A49.786 49.786 0 0150 100C22.386 100 0 77.614 0 50S22.386 0 50 0s50 22.386 50 50z" fill="#67B2F8"/><path d="M96.027 22.877v46.686a49.745 49.745 0 01-3.346 6.494 50.129 50.129 0 01-4.505 6.234H6.396V22.877c0-6.143 4.979-11.121 11.122-11.121h67.386c6.143 0 11.123 4.978 11.123 11.121z" fill="#B8BEDE"/><path d="M94.44 72.938a49.745 49.745 0 01-1.758 3.119c-1.344 2.195-3.993 4.279-5.649 6.234H6.396v-9.353H94.44z" fill="#A8ACD3"/><path d="M22.78 11.756c-6.143 0-11.122 4.979-11.122 11.121v59.415H6.396V22.877c0-6.142 4.979-11.12 11.121-11.12h5.262z" fill="#A8ACD3"/><path d="M92.682 76.057a50.25 50.25 0 01-11.774 13.248H6.625a6.61 6.61 0 01-4.684-1.94 6.624 6.624 0 014.684-11.309h86.057z" fill="#D6D8E8"/><path d="M16.596 87.364a6.606 6.606 0 004.685 1.942H6.625a6.604 6.604 0 01-4.684-1.942 6.626 6.626 0 014.684-11.309h14.656a6.625 6.625 0 00-4.685 11.31zm48.308-11.307a5.12 5.12 0 01-5.119 5.064h-19.57a5.12 5.12 0 01-5.12-5.064h29.81z" fill="#B8BEDE"/><path d="M14.209 65.205V22.877a3.309 3.309 0 013.309-3.309h67.387a3.309 3.309 0 013.309 3.31v42.327a4.31 4.31 0 01-4.311 4.31H18.52a4.31 4.31 0 01-4.311-4.31z" fill="#2E4F5F"/><path d="M69.368 58.337H13.595a9.264 9.264 0 01-9.264-9.265v-33.69a9.264 9.264 0 019.264-9.265h55.773a9.264 9.264 0 019.265 9.265v33.69a9.264 9.264 0 01-9.265 9.264z" fill="#60B936"/><path d="M19.452 58.337h-5.858a9.264 9.264 0 01-9.263-9.264V15.382a9.265 9.265 0 019.263-9.264h5.858c-5.117 0-9.266 4.149-9.266 9.264v33.691c0 5.117 4.149 9.264 9.266 9.264z" fill="#3FA210"/><path d="M31.93 17.588a2.937 2.937 0 00-2.75-1.89h-.004a2.936 2.936 0 00-2.745 1.884l-9.988 26.224a2.344 2.344 0 104.38 1.669l1.913-5.022h12.812l1.893 5.015a2.344 2.344 0 004.386-1.655L31.93 17.588zm-7.408 18.178l4.65-12.21 4.607 12.21h-9.257zM54.7 16.485h-7.31a2.344 2.344 0 00-2.345 2.348l.053 25.816a2.345 2.345 0 002.344 2.335h.009c.22 0 5.427-.02 7.504-.057 3.699-.065 6.992-1.74 9.272-4.717 2.09-2.726 3.24-6.447 3.24-10.476 0-9.12-5.13-15.25-12.767-15.25zm5.806 22.874c-1.413 1.845-3.361 2.841-5.633 2.881-1.16.02-3.381.036-5.096.045-.01-3.016-.034-17.986-.04-21.113H54.7c5.957 0 8.08 5.456 8.08 10.563 0 3.003-.808 5.711-2.274 7.624z" fill="#fff"/></g><defs><clipPath id="clip0"><path fill="#fff" d="M0 0h100v100H0z"/></clipPath></defs></svg>