<svg width="100" height="100" viewBox="0 0 100 100" fill="none" xmlns="http://www.w3.org/2000/svg"><g clip-path="url(#clip0)"><path d="M50 88.267c-18.072 0-32.775-14.703-32.775-32.775S31.928 22.717 50 22.717 82.775 37.42 82.775 55.492 68.072 88.267 50 88.267zm0-62.645c-16.47 0-29.87 13.4-29.87 29.87s13.4 29.87 29.87 29.87 29.87-13.4 29.87-29.87-13.4-29.87-29.87-29.87z" fill="#C6D0DA"/><path d="M26.798 12.462h-7.275a8.457 8.457 0 00-8.457 8.457v4.224l.781 1.984h22.568l.782-1.984V20.86a8.398 8.398 0 00-8.399-8.398z" fill="#784033"/><path d="M26.798 12.462H19.45c-.08 0-.159.003-.238.006a8.382 8.382 0 018.145 8.377v6.282h7.06l.78-1.984V20.86a8.399 8.399 0 00-8.398-8.398z" fill="#61362B"/><path d="M45.624 65.623H.639A.639.639 0 010 64.984c0-10.581 8.578-19.159 19.16-19.159h7.943c10.582 0 19.16 8.578 19.16 19.16a.638.638 0 01-.639.638z" fill="#84D85C"/><path d="M27.104 45.825h-7.945c-.087 0-.173.002-.26.003 10.461.14 18.9 8.662 18.9 19.157a.639.639 0 01-.64.638h8.465a.639.639 0 00.639-.638c0-10.582-8.578-19.16-19.16-19.16z" fill="#479621"/><path d="M23.131 55.915a8.465 8.465 0 01-8.464-8.464V35.736h16.929V47.45a8.465 8.465 0 01-8.465 8.464z" fill="#E2A770"/><path d="M27.177 35.735v11.716a8.467 8.467 0 01-6.255 8.171 8.464 8.464 0 0010.674-8.171V35.735h-4.42z" fill="#D5985C"/><path d="M37.565 28.72c-.778-.367-1.605-.405-2.368.08v-3.657a4.84 4.84 0 00-4.84-4.84h-14.45a4.84 4.84 0 00-4.841 4.84V28.8c-.764-.486-1.59-.448-2.368-.082-1.324.623-2.005 1.96-.95 4.199.82 1.744 2.36 3.322 3.625 3.64a12.751 12.751 0 005.33 7.801l3.507 2.357a5.237 5.237 0 005.842 0l1.125-.756 2.26-2.222s1.547-.45 2.159-1.08a12.758 12.758 0 003.293-6.1c1.266-.318 2.805-1.896 3.626-3.64 1.055-2.238.373-3.575-.95-4.199z" fill="#E2A770"/><path d="M37.565 28.72c-.778-.367-1.605-.405-2.368.08v-3.657a4.84 4.84 0 00-4.84-4.84h-1.23v13.474a12.75 12.75 0 01-5.638 10.582l-3.393 2.28.115.077a5.236 5.236 0 005.841 0l3.507-2.357a12.75 12.75 0 005.33-7.802c1.266-.317 2.805-1.895 3.626-3.639 1.055-2.238.373-3.575-.95-4.199z" fill="#D5985C"/><path d="M76.868 9.202c-10.968 0-19.86 8.891-19.86 19.86v29.231h39.72V29.062c0-10.969-8.891-19.86-19.86-19.86z" fill="#784033"/><path d="M76.869 9.202a19.91 19.91 0 00-4.656.55c8.722 2.095 15.204 9.945 15.204 19.31v29.232h9.311V29.062c0-10.969-8.891-19.86-19.86-19.86z" fill="#61362B"/><path d="M99.361 65.623H54.376a.639.639 0 01-.639-.638c0-10.582 8.578-19.16 19.16-19.16h7.944c10.581 0 19.159 8.578 19.159 19.16a.639.639 0 01-.639.638z" fill="#F99746"/><path d="M80.84 45.825h-7.944c-.086 0-.173.003-.26.004 10.462.14 18.9 8.661 18.9 19.156a.639.639 0 01-.64.638h8.465a.639.639 0 00.639-.638c0-10.582-8.578-19.16-19.16-19.16z" fill="#D77829"/><path d="M76.869 55.724a8.465 8.465 0 01-8.465-8.464V35.545h16.929V47.26a8.464 8.464 0 01-8.464 8.464z" fill="#FFCBBE"/><path d="M80.914 35.544V47.26c0 3.91-2.652 7.2-6.255 8.171a8.465 8.465 0 0010.674-8.171V35.545h-4.42z" fill="#EAAC9D"/><path d="M84.47 21.654H69.197a4.464 4.464 0 00-4.465 4.465v6.895c0 4.259 2.12 8.237 5.654 10.613l3.517 2.364a5.252 5.252 0 005.86 0l1.15-.774 1.954-2.01s1.849-.661 2.465-1.297a12.787 12.787 0 003.6-8.896V26.12a4.464 4.464 0 00-4.464-4.465z" fill="#FFCBBE"/><path d="M84.47 21.654h-.474v10.302a12.79 12.79 0 01-5.654 10.613l-3.517 2.363a5.23 5.23 0 01-1.475.686l.554.373a5.251 5.251 0 005.86 0l3.516-2.364a12.786 12.786 0 005.654-10.612v-6.897a4.464 4.464 0 00-4.465-4.464z" fill="#EAAC9D"/><path d="M72.493 90.798H27.507a.639.639 0 01-.639-.638c0-10.582 8.579-19.16 19.16-19.16h7.944c10.581 0 19.16 8.578 19.16 19.16a.638.638 0 01-.64.638z" fill="#3CABE3"/><path d="M53.972 71h-7.944c-.087 0-.173.002-.26.004 10.461.139 18.899 8.661 18.899 19.155a.639.639 0 01-.639.639h8.465a.639.639 0 00.638-.639C73.131 79.58 64.553 71 53.972 71z" fill="#2AAFD3"/><path d="M53.667 37.446h-7.275a8.457 8.457 0 00-8.458 8.457v4.224l.977 1.984h22.373l.781-1.984v-4.283a8.398 8.398 0 00-8.398-8.398z" fill="#FFD064"/><path d="M53.667 37.446h-7.349c-.08 0-.159.004-.238.006a8.382 8.382 0 018.145 8.377v6.282h7.06l.78-1.984v-4.283a8.399 8.399 0 00-8.398-8.398z" fill="#FFC250"/><path d="M50 80.9a8.464 8.464 0 01-8.464-8.465V60.719h16.928v11.716A8.465 8.465 0 0150 80.899z" fill="#C18678"/><path d="M54.045 60.72v11.715c0 3.91-2.652 7.2-6.255 8.171a8.465 8.465 0 0010.674-8.171V60.719h-4.419z" fill="#B46E59"/><path d="M64.434 53.703c-.778-.366-1.605-.403-2.369.082v-3.658a4.84 4.84 0 00-4.84-4.84h-14.45a4.84 4.84 0 00-4.84 4.84v3.658c-.764-.486-1.59-.448-2.368-.081-1.324.623-2.005 1.96-.95 4.198.82 1.744 2.36 3.322 3.625 3.64a12.751 12.751 0 005.33 7.801L47.08 71.7a5.237 5.237 0 005.842 0l1.124-.755 1.97-1.994s1.838-.68 2.45-1.31a12.757 12.757 0 003.293-6.1c1.266-.317 2.805-1.895 3.626-3.639 1.054-2.238.373-3.575-.95-4.199z" fill="#C18678"/><path d="M64.434 53.703c-.778-.366-1.605-.403-2.368.082v-3.658a4.84 4.84 0 00-4.84-4.84h-1.23V58.76a12.75 12.75 0 01-5.638 10.582l-3.393 2.28.114.078a5.236 5.236 0 005.842 0l3.507-2.358a12.75 12.75 0 005.33-7.801c1.266-.318 2.804-1.895 3.626-3.64 1.054-2.238.373-3.575-.95-4.199z" fill="#B46E59"/></g><defs><clipPath id="clip0"><path fill="#fff" d="M0 0h100v100H0z"/></clipPath></defs></svg>