<svg width="100" height="100" viewBox="0 0 100 100" fill="none" xmlns="http://www.w3.org/2000/svg"><path d="M4.892 72.61h15.447v21.897H4.892V72.61zm74.616-.11h15.601v22.115H79.508V72.5z" fill="#CCC"/><path d="M89.04 72.5h6.07v22.115h-6.07V72.5zm-75.29 0h6.068v22.115h-6.069V72.5z" fill="#BCBBBB"/><path d="M30.865 43.433h38.269V56.99H30.865V43.433z" fill="#EFEFEF"/><path d="M63.187 43.433h5.947V56.99h-5.947V43.433z" fill="#DDD"/><path d="M39.378 3.85H50v9.92H39.378a2.386 2.386 0 01-2.379-2.378V6.228a2.386 2.386 0 012.379-2.379z" fill="#2893C9"/><path d="M39.378 8.81H50v4.96H39.378a2.386 2.386 0 01-2.379-2.378V6.43a2.386 2.386 0 002.379 2.379z" fill="#3CABE3"/><path d="M50 20.635c.821 0 1.487-.666 1.487-1.487V1.487a1.487 1.487 0 10-2.974 0v17.661c0 .822.666 1.487 1.487 1.487z" fill="#666"/><path d="M19.818 61.63h60.365v32.984H19.818V61.631z" fill="#EFEFEF"/><path d="M74.236 61.63h5.947v32.984h-5.947V61.631z" fill="#DDD"/><path d="M50 19.148c10.567 0 19.134 8.765 19.134 19.333H30.866c0-10.568 8.566-19.333 19.134-19.333z" fill="#EFEFEF"/><path d="M47.026 19.384c11.62-1.852 22.108 7.339 22.108 19.096h-5.947c0-9.555-7.005-17.637-16.16-19.096z" fill="#DDD"/><path d="M3.675 67.116h16.142v5.864H3.675a2.932 2.932 0 010-5.864z" fill="#EAE4D6"/><path d="M13.75 67.115h6.068v5.864h-6.069v-5.864z" fill="#DDD3C0"/><path d="M96.325 67.116H80.183v5.864h16.142a2.932 2.932 0 000-5.864z" fill="#EAE4D6"/><path d="M60.704 53.135c.821 0 1.487-.666 1.487-1.487V48.92a1.487 1.487 0 10-2.973 0v2.728c0 .821.665 1.487 1.486 1.487zm-7.136 0c.822 0 1.487-.666 1.487-1.487V48.92a1.487 1.487 0 10-2.973 0v2.728c0 .821.665 1.487 1.486 1.487zm-14.272 0c.821 0 1.487-.666 1.487-1.487V48.92a1.487 1.487 0 10-2.973 0v2.728c0 .821.665 1.487 1.486 1.487zm7.136 0c.821 0 1.487-.666 1.487-1.487V48.92a1.487 1.487 0 10-2.973 0v2.728c0 .821.665 1.487 1.486 1.487zM10.28 81.477h3.73a1.487 1.487 0 100-2.974h-3.73a1.487 1.487 0 100 2.974zm0 7.136h3.73a1.487 1.487 0 100-2.974h-3.73a1.487 1.487 0 100 2.974zm75.501-7.136h3.73a1.487 1.487 0 100-2.974h-3.73a1.487 1.487 0 100 2.974zm0 7.136h3.73a1.487 1.487 0 100-2.974h-3.73a1.487 1.487 0 100 2.974zm-28.645 1.723c.82 0 1.486-.666 1.486-1.487V68.167a1.487 1.487 0 00-2.973 0V88.85c0 .821.666 1.487 1.487 1.487zm7.136 0c.82 0 1.486-.666 1.486-1.487V68.167a1.487 1.487 0 10-2.973 0V88.85c0 .821.666 1.487 1.487 1.487zm7.136 0c.82 0 1.486-.666 1.486-1.487V68.167a1.487 1.487 0 10-2.973 0V88.85c0 .821.665 1.487 1.487 1.487zm-42.816 0c.822 0 1.487-.666 1.487-1.487V68.167a1.487 1.487 0 10-2.973 0V88.85c0 .821.665 1.487 1.486 1.487zm7.136 0c.821 0 1.487-.666 1.487-1.487V68.167a1.487 1.487 0 10-2.974 0V88.85c0 .821.666 1.487 1.487 1.487zm7.136 0c.821 0 1.487-.666 1.487-1.487V68.167a1.487 1.487 0 00-2.974 0V88.85c0 .821.666 1.487 1.487 1.487zm7.136 0c.821 0 1.487-.666 1.487-1.487V68.167a1.487 1.487 0 10-2.974 0V88.85c0 .821.666 1.487 1.487 1.487z" fill="#898989"/><path d="M27.174 41.215a2.932 2.932 0 012.931-2.932h39.79a2.932 2.932 0 010 5.863h-39.79a2.932 2.932 0 01-2.931-2.931z" fill="#EAE4D6"/><path d="M65.541 41.215a2.932 2.932 0 00-2.932-2.932h7.285a2.932 2.932 0 110 5.863H62.61a2.932 2.932 0 002.932-2.931z" fill="#DDD3C0"/><path d="M15.957 59.294a2.932 2.932 0 012.932-2.932h62.222a2.932 2.932 0 010 5.864H18.889a2.932 2.932 0 01-2.932-2.932z" fill="#EAE4D6"/><path d="M76.758 59.294a2.932 2.932 0 00-2.932-2.932h7.285a2.932 2.932 0 010 5.864h-7.285a2.932 2.932 0 002.932-2.932zm15.214 10.754a2.932 2.932 0 00-2.932-2.932h7.285a2.932 2.932 0 010 5.864H89.04a2.932 2.932 0 002.932-2.932z" fill="#DDD3C0"/><path d="M3.675 94.136h92.65a2.932 2.932 0 010 5.864H3.675a2.932 2.932 0 010-5.864z" fill="#EAE4D6"/><path d="M77.21 97.068a2.932 2.932 0 00-2.932-2.932h22.047a2.932 2.932 0 010 5.864H74.277a2.932 2.932 0 002.932-2.932z" fill="#DDD3C0"/></svg>