<svg width="97" height="97" viewBox="0 0 97 97" fill="none" xmlns="http://www.w3.org/2000/svg"><g filter="url(#filter0_d)"><path d="M48.402 85.803c22.865 0 41.401-18.536 41.401-41.401C89.803 21.536 71.267 3 48.402 3 25.536 3 7 21.536 7 44.402c0 22.865 18.536 41.401 41.402 41.401z" fill="#fff"/></g><path d="M48.146 29.917c13.459 0 25.123 6.41 24.739 14.228-.129 2.435-3.846 6.922-3.846 6.922l.257 11.92-13.33-5.511s-4.103.512-6.41.512c-13.459 0-25.764-6.28-25.764-13.971.128-7.69 10.895-14.1 24.354-14.1zm0-.256c-3.333 0-6.537.384-9.485 1.153-2.948.77-5.512 1.795-7.819 3.077-2.307 1.282-3.973 2.82-5.255 4.486-1.282 1.794-1.923 3.717-1.923 5.64 0 1.923.77 3.845 2.18 5.64 1.409 1.666 3.332 3.204 5.767 4.486 2.436 1.282 5.255 2.307 8.332 3.076a41.331 41.331 0 009.741 1.154c2.051 0 5.768-.513 6.281-.513l13.33 5.512.385.128v-.385l-.256-11.92c.513-.641 3.717-4.614 3.845-7.05.128-2.435-1.025-4.87-3.076-6.922-2.18-2.179-5.384-4.101-9.1-5.383a39.774 39.774 0 00-12.947-2.18z" stroke="#E9745E" stroke-width="1.091" stroke-miterlimit="10"/><path d="M38.148 41.966a2.571 2.571 0 012.563 2.563 2.571 2.571 0 01-2.563 2.564 2.571 2.571 0 01-2.564-2.564c0-1.41 1.026-2.563 2.564-2.563zm0-.257c-1.538 0-2.82 1.282-2.82 2.82 0 1.538 1.282 2.82 2.82 2.82 1.538 0 2.82-1.281 2.82-2.82-.128-1.538-1.282-2.82-2.82-2.82zm10.126-.128a2.571 2.571 0 012.564 2.564 2.571 2.571 0 01-2.564 2.564 2.571 2.571 0 01-2.563-2.564 2.571 2.571 0 012.563-2.564zm0-.256c-1.538 0-2.82 1.282-2.82 2.82 0 1.538 1.282 2.82 2.82 2.82 1.538 0 2.82-1.282 2.82-2.82 0-1.538-1.282-2.82-2.82-2.82zm10.255.256a2.571 2.571 0 012.563 2.564 2.571 2.571 0 01-2.563 2.564 2.571 2.571 0 01-2.564-2.564 2.571 2.571 0 012.563-2.564zm0-.256c-1.539 0-2.82 1.282-2.82 2.82 0 1.538 1.281 2.82 2.82 2.82 1.538 0 2.82-1.282 2.82-2.82 0-1.538-1.282-2.82-2.82-2.82z" stroke="#E9745E" stroke-width="1.091" stroke-miterlimit="10"/><defs><filter id="filter0_d" x="0" y="0" width="96.803" height="96.803" filterUnits="userSpaceOnUse" color-interpolation-filters="sRGB"><feFlood flood-opacity="0" result="BackgroundImageFix"/><feColorMatrix in="SourceAlpha" values="0 0 0 0 0 0 0 0 0 0 0 0 0 0 0 0 0 0 127 0" result="hardAlpha"/><feOffset dy="4"/><feGaussianBlur stdDeviation="3.5"/><feColorMatrix values="0 0 0 0 0 0 0 0 0 0 0 0 0 0 0 0 0 0 0.13 0"/><feBlend in2="BackgroundImageFix" result="effect1_dropShadow"/><feBlend in="SourceGraphic" in2="effect1_dropShadow" result="shape"/></filter></defs></svg>