<svg width="108" height="108" viewBox="0 0 108 108" fill="none" xmlns="http://www.w3.org/2000/svg"><g filter="url(#filter0_d)"><path d="M83.511 77.72c13.242-16.44 10.65-40.501-5.79-53.743-16.44-13.242-40.502-10.65-53.744 5.79-13.242 16.44-10.65 40.502 5.79 53.744 16.44 13.242 40.502 10.65 53.744-5.79z" fill="#fff"/></g><path d="M71.382 53.33c-.237.118-.474.236-.71.236-.237.119-.355.474-.119.71.355.355.592.829.592 1.302.118.947-.237 1.657-.947 2.248a2.577 2.577 0 01-.947.592c-.355.118-.473.592-.236.828.71.592.828 1.42.355 2.249a3.237 3.237 0 01-1.538 1.538c-.119 0-.237.118-.237.118-.237.119-.355.119-.355.474 0 .236 0 .355.118.473.355.355.592.71.592 1.302 0 .355-.118.71-.237 1.065-.236.473-.71.947-1.065 1.301l-1.183.592c-.237.118-.947.237-1.184.237-10.176 1.538-17.158-1.42-17.986-1.775-.237-.118-.829-.473-.947-.473l-.237-.119.71-15.028c.355-.237.829-.474 1.184-.71 0 0 .118 0 .118-.119 2.13-2.366 3.55-4.97 5.207-7.81 1.065-1.893 1.538-5.916 1.656-7.455 0-.591.592-1.538 1.775-1.538.355 0 .947.118 1.302.237.473.236.828.828 1.183 1.538.474 1.065.71 2.248 1.065 3.313.119.474.119.829.237 1.302v.947c0 .355-.118.71-.118 1.065l-.355 2.13c-.119.71-.355 1.538-.592 2.248v.237c-.237.946.71 1.538 1.302 1.893.118.118.828.237.946.237 3.195.118 8.639.355 9.23.473.474 0 .829 0 1.302.118.71.119 1.42.592 1.657 1.539 0 .946-.592 2.011-1.538 2.485zM43.218 67.057c0 .828-.71 1.42-1.42 1.302l-5.207-.237c-.828 0-1.42-.71-1.302-1.42l.829-17.277c0-.828.71-1.42 1.42-1.302l5.207.237c.828 0 1.42.71 1.301 1.42l-.828 17.277z" fill="#2298F2"/><defs><filter id="filter0_d" x="8.52" y="12.52" width="90.448" height="90.448" filterUnits="userSpaceOnUse" color-interpolation-filters="sRGB"><feFlood flood-opacity="0" result="BackgroundImageFix"/><feColorMatrix in="SourceAlpha" values="0 0 0 0 0 0 0 0 0 0 0 0 0 0 0 0 0 0 127 0" result="hardAlpha"/><feOffset dy="4"/><feGaussianBlur stdDeviation="3.5"/><feColorMatrix values="0 0 0 0 0 0 0 0 0 0 0 0 0 0 0 0 0 0 0.13 0"/><feBlend in2="BackgroundImageFix" result="effect1_dropShadow"/><feBlend in="SourceGraphic" in2="effect1_dropShadow" result="shape"/></filter></defs></svg>