<svg width="91" height="93" viewBox="0 0 91 93" fill="none" xmlns="http://www.w3.org/2000/svg"><g filter="url(#filter0_d)"><path d="M51.217 81.283c20.867-3.157 35.223-22.633 32.066-43.5C80.126 16.916 60.65 2.56 39.783 5.717 18.916 8.874 4.56 28.35 7.717 49.217c3.157 20.867 22.633 35.223 43.5 32.066z" fill="#fff"/></g><path d="M67.641 38.182l-2.485-.71c.119-1.656-.118-2.957-.473-4.377l2.248-1.301c.474-.237.71-.947.355-1.42l-2.248-3.905c-.236-.473-.946-.71-1.42-.355l-2.484 1.184c-1.065-1.065-1.657-1.775-3.668-2.722l.947-2.366c.118-.591-.119-1.065-.71-1.183l-4.26-1.183c-.591-.118-.828.237-.946.71l-.71 2.484c-1.656-.118-3.076.119-4.377.474h-.119l-1.301-2.248c-.237-.474-.947-.71-1.42-.355l-3.904 2.248c-.473.236-.71.946-.355 1.42l1.183 2.366c-1.065 1.064-1.775 1.656-2.721 3.667l-2.485-.828c-.591-.118-.946 0-1.064.592l-1.184 4.259c-.118.591 0 1.065.592 1.183l2.485.71c-.119 1.656.118 2.958.591 4.377l-2.248 1.302c-.473.237-.71.947-.355 1.42l2.248 3.904c.237.473.947.71 1.42.355l2.366-1.183c1.065 1.065 2.011 1.893 3.55 2.721l-.71 2.485c-.119.591-.119 1.064.473 1.301l4.26 1.183c.59.118 1.182-.236 1.3-.71l.592-2.484c1.657.118 2.84-.119 4.141-.592l1.42 2.248c.236.473.946.71 1.538.355l3.904-2.248c.473-.236.71-.946.355-1.42l-1.183-2.366c1.065-1.065 1.775-1.538 2.721-3.55l2.485.829c.591.118 1.183 0 1.42-.592l1.183-4.259c.118-.828-.474-1.301-.947-1.42zM47.055 41.85l-.119-.118c-.118-.119-.355-.237-.473-.474l-.236-.236-.237-.237-.118-.118c-.119-.237-.355-.473-.474-.71-.118-.237-.236-.592-.355-.828 0-.118-.118-.237-.118-.355-.118-.355-.236-.71-.236-1.065-.119-.828-.119-1.775.236-2.603.473-1.775 1.775-3.194 3.313-4.022.118-.119.236-.119.473-.237h.118c.119 0 .237-.118.237-.118.237-.119.592-.119.947-.237h.355c.828-.118 1.656 0 2.602.237 1.065.236 1.893.828 2.603 1.42l.237.236.355.355.236.237.119.118.236.236c.119.119.119.237.237.355 0 .119.118.237.118.237l.355.71c0 .118.118.237.118.237 0 .118 0 .236.119.355 0 .118.118.355.118.473.119.946.119 1.893-.118 2.84-.119.59-.355 1.064-.592 1.537 0 .119-.118.237-.118.237-.118.118-.118.237-.237.355l-.236.236-.119.119c-.118.118-.236.236-.236.355l-.237.236c-.118 0-.118.119-.236.119l-.119.118-.118.118-.237.237s-.118 0-.118.118c-.118 0-.118.119-.237.119 0 0-.118 0-.118.118-.237.118-.355.236-.591.236h-.119c-.118 0-.236.119-.236.119-.119 0-.237.118-.355.118h-.119c-.118 0-.236 0-.355.118a5.49 5.49 0 01-3.076-.118c-.828-.236-1.538-.591-2.248-1.065-.473 0-.473 0-.591-.118zm-4.26 13.724h-1.301c-.119-.828-.474-1.538-.828-2.13l.946-.946c.237-.237.237-.591 0-.71l-1.656-1.656c-.237-.237-.592-.237-.71 0l-1.065.946c-.592-.355-1.065-.71-2.13-.828l.119-1.301a.509.509 0 00-.474-.474h-2.248c-.236 0-.355.237-.355.474v1.301c-.828.118-1.538.473-2.13.828l-.946-.946c-.236-.237-.591-.237-.71 0l-1.656 1.656c-.236.237-.236.592 0 .71l.947 1.065c-.355.591-.71 1.065-.829 2.13l-1.301-.119c-.237 0-.473.119-.473.473v2.248c0 .237.118.474.473.474h1.301c.119.828.474 1.42.829 2.13l-.947.946c-.236.236-.236.591 0 .71l1.657 1.656c.236.237.591.237.71 0l1.064-.947c.592.355 1.302.71 2.13.829v1.301c0 .237.118.592.355.592h2.366c.237 0 .592-.237.592-.592l-.119-1.301c.828-.119 1.42-.474 2.011-.829l1.065.947a.572.572 0 00.828 0l1.657-1.656c.236-.237.236-.592 0-.71l-.947-1.065c.355-.592.71-1.065.829-2.13l1.301.119c.237 0 .592-.237.592-.474v-2.248c-.355-.236-.71-.473-.947-.473zm-9.702 4.614c-.118 0-.118 0 0 0-.236-.118-.236-.118-.355-.236 0 0-.118 0-.118-.119l-.118-.118h-.118l-.355-.355c-.119-.118-.237-.236-.237-.355l-.118-.118c-.119-.118-.237-.355-.237-.473-.118-.355-.236-.828-.236-1.302 0-.946.473-1.893 1.064-2.484.119 0 .119-.119.237-.119h.118l.119-.118c.118-.118.236-.118.473-.237 0 0 .118 0 .118-.118.355-.118.828-.236 1.302-.236.591 0 1.064.118 1.538.354 0 0 .118 0 .118.119.118 0 .118.118.237.118l.118.118h.118l.118.119c.119 0 .119.118.119.118l.118.118c.118.119.118.237.237.355l.118.119s0 .118.118.118c0 .118.119.118.119.236.236.474.355.947.355 1.42 0 .237 0 .592-.119.828v.119c0 .118 0 .118-.118.236 0 0 0 .119-.118.119v.118c0 .118-.119.118-.119.237 0 0 0 .118-.118.118 0 0 0 .118-.118.118 0 0 0 .119-.119.119v.118l-.118.118v.118l-.118.119-.237.236h-.118l-.118.119s-.119 0-.119.118h-.118s-.118 0-.118.118a3.275 3.275 0 01-1.538.355c-.71-.118-1.065-.118-1.538-.355z" fill="#62BF37"/><defs><filter id="filter0_d" x=".282" y="2.282" width="90.437" height="90.437" filterUnits="userSpaceOnUse" color-interpolation-filters="sRGB"><feFlood flood-opacity="0" result="BackgroundImageFix"/><feColorMatrix in="SourceAlpha" values="0 0 0 0 0 0 0 0 0 0 0 0 0 0 0 0 0 0 127 0" result="hardAlpha"/><feOffset dy="4"/><feGaussianBlur stdDeviation="3.5"/><feColorMatrix values="0 0 0 0 0 0 0 0 0 0 0 0 0 0 0 0 0 0 0.13 0"/><feBlend in2="BackgroundImageFix" result="effect1_dropShadow"/><feBlend in="SourceGraphic" in2="effect1_dropShadow" result="shape"/></filter></defs></svg>